---
config:
  theme: redux-color
  layout: elk
  look: handDrawn
---
erDiagram
	direction LR
	CLIENT {
		int id_client PK ""  
		string nom_client  ""  
		string email_client  ""  
	}

	COMMANDE {
		int numero_commande PK ""  
		date date_commande  ""  
		int id_client FK ""  
	}

	PRODUIT {
		int id_produit PK ""  
		string nom_produit  ""  
		decimal prix_produit  ""  
	}

	COMMANDE_PRODUIT {
		int numero_commande PK,FK ""  
		int id_produit PK,FK ""  
		int quantite_commande  ""  
	}

	CLIENT||--o{COMMANDE:"passe"
	COMMANDE||--o{COMMANDE_PRODUIT:"contient"
	PRODUIT||--o{COMMANDE_PRODUIT:"concerne"